<?xml version="1.0" standalone="no"?>
<!DOCTYPE svg PUBLIC "-//W3C//DTD SVG 20010904//EN"
 "http://www.w3.org/TR/2001/REC-SVG-20010904/DTD/svg10.dtd">
<svg version="1.0" xmlns="http://www.w3.org/2000/svg"
 width="260.000000pt" height="260.000000pt" viewBox="0 0 260.000000 260.000000"
 preserveAspectRatio="xMidYMid meet">
<metadata>
Created by potrace 1.14, written by Peter Selinger 2001-2017
</metadata>
<g transform="translate(0.000000,260.000000) scale(0.100000,-0.100000)"
fill="#000000" stroke="none">
<path d="M1390 1753 c0 -509 -4 -876 -10 -918 -25 -170 -80 -264 -187 -317
-63 -31 -76 -33 -183 -36 -105 -4 -211 8 -296 33 -20 6 -22 -1 -48 -192 -15
-109 -30 -215 -33 -235 l-5 -37 53 -15 c110 -30 202 -38 419 -34 184 4 227 8
294 27 336 94 520 336 565 744 7 61 11 412 11 962 l0 865 -290 0 -290 0 0
-847z"/>
</g>
</svg>
